<svg xmlns="http://www.w3.org/2000/svg" xmlns:xlink="http://www.w3.org/1999/xlink" width="24" height="24" viewBox="0 0 24 24" className="_3rHKgsdA1qX-_9ks50GGiT _1ellh7F7KzTdtZohr1xFhN"><defs><path id="276a" d="M19 17v-2h2v2h2v2h-2v2h-2v-2h-2v-2h2zm-1-2.874a4.002 4.002 0 00-2.952 4.497H9V4h7c1.105 0 2 .873 2 1.95v8.176zM6 4h2v14.623H6V4zm9.5 4h-4c-.276 0-.5.15-.5.333v1.334c0 .184.224.333.5.333h4c.276 0 .5-.15.5-.333V8.333C16 8.15 15.776 8 15.5 8z"></path></defs><use fill-rule="nonzero" xlink:href="#276a"></use></svg>